<svg height="128" version="1.1" width="128" xmlns="http://www.w3.org/2000/svg" viewBox="0 0 64 64" fill="#F9858B" style=""><g>
<path d="M32,62.435C15.218,62.435,1.565,48.781,1.565,32C1.565,15.218,15.218,1.565,32,1.565c16.781,0,30.435,13.653,30.435,30.435
	C62.435,48.781,48.781,62.435,32,62.435L32,62.435z M32,3.565C16.321,3.565,3.565,16.321,3.565,32S16.321,60.435,32,60.435
	S60.435,47.679,60.435,32S47.679,3.565,32,3.565L32,3.565z"></path>
<polygon points="33,5.591 31,5.591 31,2.565 33,2.565 33,5.591 	"></polygon>
<polygon points="33,61.435 31,61.435 31,58.409 33,58.409 33,61.435 	"></polygon>
<polygon points="17.929,9.629 16.417,7.009 18.149,6.009 19.662,8.629 17.929,9.629 	"></polygon>
<polygon points="45.851,57.991 44.339,55.371 46.071,54.371 47.583,56.991 45.851,57.991 	"></polygon>
<polygon points="8.629,19.662 6.009,18.149 7.009,16.417 9.629,17.929 8.629,19.662 	"></polygon>
<polygon points="56.99,47.584 54.371,46.07 55.371,44.338 57.99,45.852 56.99,47.584 	"></polygon>
<polygon points="5.59,33 2.565,33 2.565,31 5.59,31 5.59,33 	"></polygon>
<polygon points="61.434,33.001 58.409,33 58.409,31 61.434,31 61.434,33.001 	"></polygon>
<polygon points="7.008,47.583 6.008,45.851 8.628,44.338 9.628,46.07 7.008,47.583 	"></polygon>
<polygon points="55.371,19.661 54.371,17.928 56.99,16.417 57.99,18.149 55.371,19.661 	"></polygon>
<polygon points="18.148,57.99 16.416,56.99 17.928,54.37 19.661,55.37 18.148,57.99 	"></polygon>
<polygon points="46.07,9.628 44.338,8.628 45.851,6.009 47.583,7.009 46.07,9.628 	"></polygon>
<polygon points="33,32 31,32 31,9.774 33,9.774 33,32 " transform="matrix(0.0014,1,-1,0.0014,63.9552,-0.0448)"></polygon>
</g></svg>
