<svg height="128" version="1.1" width="128" xmlns="http://www.w3.org/2000/svg" viewBox="0 0 64 64" fill="#F9858B" style=""><g>
	<path d="M44.242,18.698l-0.801-0.484l-2.946-0.251l-0.892-1.636l-0.24-1.849l2.234-1.934l0.366-0.869
		c-0.782-1.412-1.735-2.716-2.83-3.886l-0.935,0.079l-2.527,1.528l-1.685-0.799l-1.282-1.355l0.673-2.877l-0.215-0.917
		c-1.413-0.663-2.916-1.162-4.489-1.47L27.88,2.664l-1.148,2.723l-1.833,0.34l-1.833-0.34l-1.149-2.724l-0.793-0.688
		c-1.572,0.309-3.078,0.807-4.489,1.469l-0.214,0.92l0.672,2.877l-1.281,1.353l-1.684,0.801l-2.53-1.528l-0.933-0.08
		c-1.096,1.169-2.048,2.475-2.832,3.888l0.368,0.868l2.234,1.933l-0.242,1.847l-0.891,1.639l-2.945,0.251l-0.802,0.484
		c-0.097,0.788-0.152,1.59-0.152,2.404c0,0.815,0.056,1.618,0.153,2.407l0.804,0.484l2.944,0.25l0.89,1.637l0.242,1.849
		l-2.234,1.935l-0.367,0.868c0.783,1.413,1.735,2.717,2.832,3.889l0.933-0.082l2.529-1.527l1.682,0.801l1.283,1.354l-0.671,2.877
		l0.214,0.919c1.461,0.685,3.021,1.193,4.652,1.499l0.63-0.546l1.148-2.722l1.833-0.344l1.834,0.344l1.148,2.722l0.629,0.546
		c1.632-0.306,3.191-0.814,4.652-1.499l0.215-0.919l-0.67-2.878l1.279-1.354l1.686-0.801l2.527,1.527l0.933,0.08
		c1.096-1.171,2.05-2.475,2.831-3.887l-0.365-0.868l-2.234-1.934l0.239-1.848l0.893-1.638l2.944-0.25l0.802-0.485
		c0.097-0.788,0.153-1.59,0.153-2.405C44.396,20.289,44.34,19.487,44.242,18.698z M24.899,33.098
		c-6.625,0-11.996-5.369-11.996-11.994c0-6.625,5.371-11.996,11.996-11.996s11.997,5.37,11.997,11.996
		C36.896,27.729,31.523,33.098,24.899,33.098z" transform="matrix(0.8412,0.5407,-0.5407,0.8412,15.3607,-10.1125)"></path>
	<path d="M52.171,54.637l0.674-1.736l1.253-1.381l2.922,0.456l0.941-0.293c0.396-1.286,0.604-2.604,0.637-3.917l-0.789-0.571
		L54.897,46.7l-0.752-1.703l-0.089-1.863l2.387-1.744l0.456-0.868c-0.613-1.161-1.385-2.248-2.311-3.223l-0.991,0.158l-2.41,1.711
		l-1.737-0.673l-1.381-1.255l0.457-2.919l-0.299-0.96c-1.276-0.388-2.583-0.596-3.886-0.628l-0.57,0.788l-0.494,2.914l-1.705,0.751
		l-1.863,0.089l-1.742-2.387l-0.87-0.456c-1.161,0.615-2.249,1.387-3.226,2.313l0.156,0.967l1.711,2.406l-0.674,1.739l-1.255,1.378
		l-2.92-0.455l-0.942,0.295c-0.396,1.286-0.604,2.603-0.638,3.917l0.79,0.57l2.914,0.492l0.752,1.707l0.089,1.861l-2.387,1.742
		l-0.458,0.871c0.615,1.162,1.388,2.251,2.316,3.229l0.937-0.15l2.409-1.712l1.736,0.673l1.381,1.255l-0.455,2.921l0.288,0.926
		c1.296,0.403,2.624,0.612,3.948,0.646l0.57-0.79l0.493-2.912l1.704-0.752l1.862-0.09l1.744,2.388l0.87,0.457
		c1.161-0.614,2.248-1.387,3.226-2.313l-0.156-0.965L52.171,54.637z M39.609,54.4c-3.878-2.398-5.076-7.488-2.677-11.366
		s7.488-5.076,11.366-2.678c3.877,2.399,5.077,7.488,2.678,11.367C48.577,55.601,43.488,56.8,39.609,54.4z" transform="matrix(0.7568,-0.6537,0.6537,0.7568,-20.2498,40.2803)"></path>
</g></svg>
